0
SECTION
2
HEADER
9
$INSUNITS
70
4
9
$ACADVER
1
AC1014
9
$HANDSEED
5
FFFF
0
ENDSEC
0
SECTION
2
TABLES
0
TABLE
2
VPORT
5
8
100
AcDbSymbolTable
0
ENDTAB
0
TABLE
2
LTYPE
5
5
100
AcDbSymbolTable
0
LTYPE
5
14
100
AcDbSymbolTableRecord
100
AcDbLinetypeTableRecord
2
BYBLOCK
70
0
0
LTYPE
5
15
100
AcDbSymbolTableRecord
100
AcDbLinetypeTableRecord
2
BYLAYER
70
0
0
ENDTAB
0
TABLE
2
LAYER
5
2
100
AcDbSymbolTable
70
2
0
LAYER
5
50
100
AcDbSymbolTableRecord
100
AcDbLayerTableRecord
2
0
70
0
6
CONTINUOUS
0
ENDTAB
0
TABLE
2
STYLE
5
3
100
AcDbSymbolTable
70
1
0
STYLE
5
11
100
AcDbSymbolTableRecord
100
AcDbTextStyleTableRecord
2
STANDARD
70
0
0
ENDTAB
0
TABLE
2
VIEW
5
6
100
AcDbSymbolTable
70
0
0
ENDTAB
0
TABLE
2
UCS
5
7
100
AcDbSymbolTable
70
0
0
ENDTAB
0
TABLE
2
APPID
5
9
100
AcDbSymbolTable
70
2
0
APPID
5
12
100
AcDbSymbolTableRecord
100
AcDbRegAppTableRecord
2
ACAD
70
0
0
ENDTAB
0
TABLE
2
DIMSTYLE
5
A
100
AcDbSymbolTable
70
1
0
ENDTAB
0
TABLE
2
BLOCK_RECORD
5
1
100
AcDbSymbolTable
70
1
0
BLOCK_RECORD
5
1F
100
AcDbSymbolTableRecord
100
AcDbBlockTableRecord
2
*MODEL_SPACE
0
BLOCK_RECORD
5
1B
100
AcDbSymbolTableRecord
100
AcDbBlockTableRecord
2
*PAPER_SPACE
0
ENDTAB
0
ENDSEC
0
SECTION
2
BLOCKS
0
BLOCK
5
20
100
AcDbEntity
100
AcDbBlockBegin
2
*MODEL_SPACE
0
ENDBLK
5
21
100
AcDbEntity
100
AcDbBlockEnd
0
BLOCK
5
1C
100
AcDbEntity
100
AcDbBlockBegin
2
*PAPER_SPACE
0
ENDBLK
5
1D
100
AcDbEntity
100
AcDbBlockEnd
0
ENDSEC
0
SECTION
2
ENTITIES
0
LWPOLYLINE
5
100
100
AcDbEntity
8
0
100
AcDbPolyline
90
19
70
1
43
0.0
10
10.406817976060193
20
-81.458980308302401
42
0.13453968998333443
10
38.508131496576191
20
-89.160040925987531
10
64.57001449333643
20
-89.159741490345368
42
-0.13164645965721716
10
100.74554516627038
20
-98.852492449386233
10
108.12824254862777
20
-103.11488852238007
42
0.42023554602764851
10
109.50429918690639
20
-102.73148279817022
10
118.01928156258286
20
-87.982916370050248
10
119.51937000000029
20
-85.385530000000188
10
122.21713767199957
20
-80.712868247641325
42
0.11263740945955651
10
123.96317634387015
20
-73.457025629057256
10
123.96418001301737
20
-33.604121381083715
42
0.41419676697794777
10
121.9641399867015
20
-31.604009995874094
10
105.18256417553025
20
-31.60283539127791
10
105.18265390118052
20
-16.408858859087832
42
0.28344023421547299
10
104.63106455639775
20
-15.514492909391517
42
0.11019105255553371
10
59.557755194408664
20
-5.4588351858390549
42
0.18616072319055232
10
10.257224308110512
20
-24.473400737666058
42
0.20866986990809955
10
9.934335679265283
20
-25.206978803051555
10
9.9340343564501925
20
-80.798127128950171
42
0.21104562008364555
0
LWPOLYLINE
5
101
100
AcDbEntity
8
0
100
AcDbPolyline
90
4
70
1
43
0.0
10
12.457827493131969
20
-65.084593490345213
10
26.457827493131969
20
-65.084593490345213
10
26.457827493131969
20
-79.084593490345213
10
12.457827493131969
20
-79.084593490345213
0
ARC
5
102
100
AcDbEntity
8
0
100
AcDbCircle
10
106.91440090821141
20
-78.416181364623725
30
0
40
1.7321240877735831
210
0
220
0
230
1
100
AcDbArc
50
180.20298430999682
51
239.99632730367966
0
LINE
5
103
100
AcDbEntity
8
0
100
AcDbLine
10
119.38563094564074
20
-87.617169560302543
30
0
11
106.04824271109194
21
-79.916189308890736
31
0
0
LWPOLYLINE
5
104
100
AcDbEntity
8
0
100
AcDbPolyline
90
4
70
1
43
0.0
10
31.507828493131971
20
-48.034593490345202
10
31.507828493131971
20
-34.034593490345202
10
45.507828493131974
20
-34.034593490345202
10
45.507828493131974
20
-48.034593490345202
0
LWPOLYLINE
5
105
100
AcDbEntity
8
0
100
AcDbPolyline
90
4
70
1
43
0.0
10
83.607828493131962
20
-34.534091490345205
10
83.607828493131962
20
-48.534091490345205
10
69.607828493131976
20
-48.534091490345205
10
69.607828493131976
20
-34.534091490345205
0
LWPOLYLINE
5
106
100
AcDbEntity
8
0
100
AcDbPolyline
90
4
70
1
43
0.0
10
64.55782049313197
20
-22.984095490345204
10
50.557820493131956
20
-22.984095490345204
10
50.557820493131956
20
-8.9840954903452008
10
64.55782049313197
20
-8.9840954903452008
0
LWPOLYLINE
5
107
100
AcDbEntity
8
0
100
AcDbPolyline
90
4
70
1
43
0.0
10
102.94561366664097
20
-81.042307663845207
10
115.06996931962198
20
-88.042307663845207
10
108.06996931962297
20
-100.16666331683518
10
95.945613666640966
20
-93.166663316835212
0
LWPOLYLINE
5
108
100
AcDbEntity
8
0
100
AcDbPolyline
90
4
70
1
43
0.0
10
90.710615961437981
20
-90.998009590085204
10
77.187654393390972
20
-87.374542958645208
10
80.811121024825979
20
-73.8515813905952
10
94.33408259287296
20
-77.47504802203521
0
LWPOLYLINE
5
109
100
AcDbEntity
8
0
100
AcDbPolyline
90
4
70
1
43
0.0
10
45.507823493131966
20
-14.984598490345203
10
45.507823493131966
20
-28.984598490345203
10
31.507823493131969
20
-28.984598490345203
10
31.507823493131969
20
-14.984598490345203
0
LWPOLYLINE
5
110
100
AcDbEntity
8
0
100
AcDbPolyline
90
4
70
1
43
0.0
10
45.507827493131963
20
-53.084597490345203
10
45.507827493131963
20
-67.084597490345203
10
31.50782749313197
20
-67.084597490345203
10
31.50782749313197
20
-53.084597490345203
0
LINE
5
111
100
AcDbEntity
8
0
100
AcDbLine
10
105.18228769040483
20
-78.42231782494062
30
0
11
105.18255928316181
21
-32.431300058349287
31
0
0
CIRCLE
5
112
100
AcDbEntity
8
0
100
AcDbCircle
10
28.982823493131971
20
-69.609594490345202
30
0
40
1.1000000000000001
210
0
220
0
230
1
0
LWPOLYLINE
5
113
100
AcDbEntity
8
0
100
AcDbPolyline
90
4
70
1
43
0.0
10
69.607824493131972
20
-67.584093490345211
10
69.607824493131972
20
-53.584093490345204
10
83.607824493131986
20
-53.584093490345204
10
83.607824493131986
20
-67.584093490345211
0
LWPOLYLINE
5
114
100
AcDbEntity
8
0
100
AcDbPolyline
90
4
70
1
43
0.0
10
88.657830493131968
20
-70.084095490345206
10
88.657830493131968
20
-56.084095490345206
10
102.65783049313198
20
-56.084095490345206
10
102.65783049313198
20
-70.084095490345206
0
LWPOLYLINE
5
115
100
AcDbEntity
8
0
100
AcDbPolyline
90
4
70
1
43
0.0
10
50.557824493131974
20
-28.034098490345201
10
64.557824493131974
20
-28.034098490345201
10
64.557824493131974
20
-42.034098490345208
10
50.557824493131974
20
-42.034098490345208
0
LWPOLYLINE
5
116
100
AcDbEntity
8
0
100
AcDbPolyline
90
4
70
1
43
0.0
10
12.457820493131969
20
-26.984596490345201
10
26.457820493131969
20
-26.984596490345201
10
26.457820493131969
20
-40.984596490345204
10
12.457820493131971
20
-40.984596490345204
0
LWPOLYLINE
5
117
100
AcDbEntity
8
0
100
AcDbPolyline
90
4
70
1
43
0.0
10
64.557828493131979
20
-61.084092490345213
10
50.557828493131964
20
-61.084092490345213
10
50.557828493131964
20
-47.084092490345206
10
64.557828493131979
20
-47.084092490345206
0
LWPOLYLINE
5
118
100
AcDbEntity
8
0
100
AcDbPolyline
90
4
70
1
43
0.0
10
57.569954493131959
20
-72.634576490345211
10
71.569954493131974
20
-72.634576490345211
10
71.569954493131974
20
-86.634576490345196
10
57.569954493131959
20
-86.634576490345196
0
LWPOLYLINE
5
119
100
AcDbEntity
8
0
100
AcDbPolyline
90
4
70
1
43
0.0
10
26.457829493131971
20
-60.034590490345195
10
12.457829493131969
20
-60.034590490345195
10
12.457829493131969
20
-46.034590490345202
10
26.457829493131971
20
-46.034590490345202
0
CIRCLE
5
120
100
AcDbEntity
8
0
100
AcDbCircle
10
96.399522493131983
20
-84.666852490345192
30
0
40
1.1000000000000001
210
0
220
0
230
1
0
LWPOLYLINE
5
121
100
AcDbEntity
8
0
100
AcDbPolyline
90
4
70
1
43
0.0
10
102.65782949313197
20
-51.034096490345213
10
88.657829493131985
20
-51.034096490345213
10
88.657829493131985
20
-37.034096490345199
10
102.65782949313197
20
-37.034096490345199
0
CIRCLE
5
122
100
AcDbEntity
8
0
100
AcDbCircle
10
28.982827493131971
20
-31.509595490345205
30
0
40
1.1000000000000001
210
0
220
0
230
1
0
CIRCLE
5
123
100
AcDbEntity
8
0
100
AcDbCircle
10
86.132826493131986
20
-32.009094490345205
30
0
40
1.1000000000000001
210
0
220
0
230
1
0
CIRCLE
5
124
100
AcDbEntity
8
0
100
AcDbCircle
10
67.082322493131983
20
-66.384037490345207
30
0
40
1.1000000000000001
210
0
220
0
230
1
0
LWPOLYLINE
5
125
100
AcDbEntity
8
0
100
AcDbPolyline
90
4
70
1
43
0.0
10
83.607829493131973
20
-15.484099490345201
10
83.607829493131973
20
-29.484099490345205
10
69.607829493131987
20
-29.484099490345201
10
69.607829493131987
20
-15.4840994903452
0
LWPOLYLINE
5
126
100
AcDbEntity
8
0
100
AcDbPolyline
90
4
70
1
43
0.0
10
102.65782749313198
20
-17.9840944903452
10
102.65782749313198
20
-31.984094490345207
10
88.65782749313199
20
-31.984094490345207
10
88.65782749313199
20
-17.9840944903452
0
LWPOLYLINE
5
127
100
AcDbEntity
8
0
100
AcDbPolyline
90
4
70
1
43
0.0
10
72.569954493131959
20
-71.634576490345211
10
72.569954493131959
20
-87.634576490345211
10
56.569954493131966
20
-87.634576490345211
10
56.569954493131966
20
-71.634576490345211
0
LWPOLYLINE
5
128
100
AcDbEntity
8
0
100
AcDbPolyline
90
4
70
1
43
0.0
10
75.962909521999535
20
-88.081649739831462
10
80.104014243639426
20
-72.62683651920328
10
95.558827464264354
20
-76.767941240848955
10
91.417722742624491
20
-92.222754461477123
0
LWPOLYLINE
5
129
100
AcDbEntity
8
0
100
AcDbPolyline
90
4
70
1
43
0.0
10
68.607824493131972
20
-52.584093490345211
10
84.607824493131986
20
-52.584093490345211
10
84.607824493131986
20
-68.584093490345211
10
68.607824493131972
20
-68.584093490345211
0
LWPOLYLINE
5
130
100
AcDbEntity
8
0
100
AcDbPolyline
90
4
70
1
43
0.0
10
30.507827493131966
20
-52.08459749034521
10
46.50782749313197
20
-52.08459749034521
10
46.50782749313197
20
-68.084597490345203
10
30.507827493131966
20
-68.084597490345203
0
LWPOLYLINE
5
131
100
AcDbEntity
8
0
100
AcDbPolyline
90
4
70
1
43
0.0
10
46.507828493131967
20
-33.034593490345202
10
46.507828493131967
20
-49.034593490345202
10
30.507828493131971
20
-49.034593490345202
10
30.507828493131971
20
-33.034593490345202
0
LWPOLYLINE
5
132
100
AcDbEntity
8
0
100
AcDbPolyline
90
4
70
1
43
0.0
10
84.607828493131962
20
-33.534091490345205
10
84.607828493131962
20
-49.534091490345205
10
68.607828493131976
20
-49.534091490345205
10
68.607828493131976
20
-33.534091490345205
0
LWPOLYLINE
5
133
100
AcDbEntity
8
0
100
AcDbPolyline
90
4
70
1
43
0.0
10
87.657827493132004
20
-32.9840944903452
10
87.657827493132004
20
-16.9840944903452
10
103.65782749313199
20
-16.9840944903452
10
103.65782749313199
20
-32.9840944903452
0
LWPOLYLINE
5
134
100
AcDbEntity
8
0
100
AcDbPolyline
90
4
70
1
43
0.0
10
49.557820493131963
20
-23.984095490345201
10
49.557820493131963
20
-7.9840954903451999
10
65.557820493131956
20
-7.9840954903451999
10
65.557820493131956
20
-23.984095490345201
0
LWPOLYLINE
5
135
100
AcDbEntity
8
0
100
AcDbPolyline
90
4
70
1
43
0.0
10
30.507823493131969
20
-29.984598490345206
10
30.507823493131969
20
-13.984598490345201
10
46.507823493131966
20
-13.984598490345201
10
46.507823493131966
20
-29.984598490345206
0
LWPOLYLINE
5
136
100
AcDbEntity
8
0
100
AcDbPolyline
90
4
70
1
43
0.0
10
27.457820493131969
20
-25.984596490345204
10
27.457820493131972
20
-41.984596490345197
10
11.457820493131969
20
-41.984596490345197
10
11.457820493131969
20
-25.984596490345204
0
LWPOLYLINE
5
137
100
AcDbEntity
8
0
100
AcDbPolyline
90
4
70
1
43
0.0
10
68.607829493131987
20
-30.484099490345201
10
68.607829493131987
20
-14.484099490345201
10
84.607829493131973
20
-14.484099490345201
10
84.607829493131973
20
-30.484099490345208
0
LWPOLYLINE
5
138
100
AcDbEntity
8
0
100
AcDbPolyline
90
4
70
1
43
0.0
10
87.657829493131985
20
-52.034096490345206
10
87.657829493131985
20
-36.034096490345206
10
103.65782949313198
20
-36.034096490345206
10
103.65782949313198
20
-52.034096490345206
0
LWPOLYLINE
5
139
100
AcDbEntity
8
0
100
AcDbPolyline
90
4
70
1
43
0.0
10
65.557824493131974
20
-27.034098490345201
10
65.557824493131974
20
-43.034098490345215
10
49.557824493131974
20
-43.034098490345215
10
49.557824493131974
20
-27.034098490345208
0
LWPOLYLINE
5
140
100
AcDbEntity
8
0
100
AcDbPolyline
90
4
70
1
43
0.0
10
27.457829493131971
20
-45.034590490345195
10
27.457829493131971
20
-61.034590490345202
10
11.457829493131968
20
-61.034590490345202
10
11.457829493131968
20
-45.034590490345195
0
LWPOLYLINE
5
141
100
AcDbEntity
8
0
100
AcDbPolyline
90
4
70
1
43
0.0
10
49.557828493131964
20
-46.084092490345199
10
65.557828493131979
20
-46.084092490345199
10
65.557828493131979
20
-62.084092490345213
10
49.557828493131964
20
-62.084092490345213
0
LWPOLYLINE
5
142
100
AcDbEntity
8
0
100
AcDbPolyline
90
4
70
1
43
0.0
10
87.657830493131982
20
-55.084095490345213
10
103.65783049313195
20
-55.084095490345213
10
103.65783049313195
20
-71.084095490345206
10
87.657830493131982
20
-71.084095490345206
0
LWPOLYLINE
5
143
100
AcDbEntity
8
0
100
AcDbPolyline
90
4
70
1
43
0.0
10
94.579588262856774
20
-93.532688720619774
10
102.57958826285632
20
-79.676282260060589
10
116.4359947234061
20
-87.676282260060646
10
108.43599472340769
20
-101.53268872061979
0
LWPOLYLINE
5
144
100
AcDbEntity
8
0
100
AcDbPolyline
90
4
70
1
43
0.0
10
27.457827493131969
20
-64.084593490345213
10
27.457827493131969
20
-80.084593490345213
10
11.457827493131969
20
-80.084593490345213
10
11.457827493131969
20
-64.084593490345213
0
LWPOLYLINE
5
145
100
AcDbEntity
8
0
100
AcDbPolyline
90
4
70
1
43
0.0
10
56.569954493131966
20
-70.634576490345211
10
72.569954493131959
20
-70.634576490345211
10
72.569954493131959
20
-88.634576490345211
10
56.569954493131966
20
-88.634576490345211
0
ARC
5
146
100
AcDbEntity
8
0
100
AcDbCircle
10
109.68158346557551
20
-34.853997407669908
30
0
40
0.5003300004000365
210
0
220
0
230
1
100
AcDbArc
50
176.99895326781265
51
269.99874541626014
0
ARC
5
147
100
AcDbEntity
8
0
100
AcDbCircle
10
121.964
20
-33.603999999999999
30
0
40
1.9999900090250025
210
0
220
-0
230
1
100
AcDbArc
50
89.995989656371208
51
179.99455687380157
0
ARC
5
148
100
AcDbEntity
8
0
100
AcDbCircle
10
106.91486291633809
20
-78.415754724413446
30
0
40
1.7322679682794917
210
0
220
0
230
1
100
AcDbArc
50
180.01403096455641
51
240.00576947387748
0
LINE
5
149
100
AcDbEntity
8
0
100
AcDbLine
10
119.46382996596002
20
-35.353830044003594
30
0
11
109.68157251004112
21
-35.35432740794996
31
0
0
LINE
5
150
100
AcDbEntity
8
0
100
AcDbLine
10
105.18268000000033
20
-33.604259987079594
30
0
11
105.18260987657349
21
-70.57326367127078
31
0
0
LINE
5
151
100
AcDbEntity
8
0
100
AcDbLine
10
106.04887999999981
20
-79.916030000000362
30
0
11
116.78721516298617
21
-86.117502094123807
31
0
0
ARC
5
152
100
AcDbEntity
8
0
100
AcDbCircle
10
107.18284829304727
20
-33.604438300794072
30
0
40
2.0001683009952127
210
0
220
0
230
1
100
AcDbArc
50
90.000810789738239
51
179.99489211822203
0
LINE
5
153
100
AcDbEntity
8
0
100
AcDbLine
10
119.96401000000006
20
-33.6038100000019
30
0
11
119.96383799999873
21
-34.853738009259821
31
0
0
CIRCLE
5
154
100
AcDbEntity
8
0
100
AcDbCircle
10
117.78676000000002
20
-84.385740999999996
30
0
40
1.1000000000000001
210
0
220
0
230
1
0
CIRCLE
5
155
100
AcDbEntity
8
0
100
AcDbCircle
10
107.18287700000002
20
-33.604450999999997
30
0
40
1.1000000000000001
210
0
220
0
230
1
0
ARC
5
156
100
AcDbEntity
8
0
100
AcDbCircle
10
119.464
20
-34.853999999999999
30
0
40
0.49983007292499765
210
0
220
0
230
1
100
AcDbArc
50
-90.01949109023279
51
0.030031654869453951
0
CIRCLE
5
157
100
AcDbEntity
8
0
100
AcDbCircle
10
121.96420200000003
20
-33.603996000000002
30
0
40
1.1000000000000001
210
0
220
0
230
1
0
ARC
5
158
100
AcDbEntity
8
0
100
AcDbCircle
10
107.18309752470576
20
-33.604142541777527
30
0
40
1.9998725610323724
210
0
220
0
230
1
100
AcDbArc
50
-0.0076628838832871141
51
90.007951325722615
0
LINE
5
159
100
AcDbEntity
8
0
100
AcDbLine
10
109.18193962851194
20
-34.827803030702754
30
0
11
109.18297006785221
21
-33.604410009841395
31
0
0
LWPOLYLINE
5
160
100
AcDbEntity
8
0
100
AcDbPolyline
90
19
70
1
43
0.0
10
106.18257009537908
20
-30.602905368042336
10
106.18265391680208
20
-16.408739820227684
42
0.28557035661262586
10
105.06616386831708
20
-14.614042379754917
42
0.11021734177104316
10
59.557759696591461
20
-4.4588351709486318
42
0.18617303810432642
10
9.5831139354694628
20
-23.734761722726368
42
0.20952579063011342
10
8.934336310851986
20
-25.205375304257092
10
8.934033879997644
20
-80.883276191051152
42
0.22668447708907055
10
9.8975078377216477
20
-82.319563468426281
42
0.13453714548785908
10
38.508134030437184
20
-90.160040940919757
10
64.570025637415469
20
-90.159741505249414
42
-0.13164637843689256
10
100.24555563570527
20
-99.71852391490053
10
107.62810290775786
20
-103.98083332179546
42
0.4184734008949349
10
110.37450833872887
20
-103.22423627326658
10
118.88527320027029
20
-88.482974885208705
10
120.38536007760443
20
-85.885591216425411
10
123.09871951881715
20
-81.185923779176989
42
0.11317885059491338
10
124.96317621208284
20
-73.462862810587268
10
124.96418002805493
20
-33.604128556927016
42
0.41419737879992008
10
121.96419823892836
20
-30.604009982623637
0
LINE
5
161
100
AcDbEntity
8
0
100
AcDbLine
10
108.18258678274145
20
-27.7745806992002
30
0
11
108.18265390334173
21
-16.408501742512712
31
0
0
ARC
5
162
100
AcDbEntity
8
0
100
AcDbCircle
10
104.18138525661682
20
-16.409103151683301
30
0
40
4.0012686919221911
210
0
220
-0
230
1
100
AcDbArc
50
0.0086118203976235652
51
64.076438817104091
0
ARC
5
163
100
AcDbEntity
8
0
100
AcDbCircle
10
59.557277747445241
20
-111.50672225387892
30
0
40
109.04788706911333
210
0
220
-0
230
1
100
AcDbArc
50
64.833084789627677
51
89.999744948155893
0
ARC
5
164
100
AcDbEntity
8
0
100
AcDbCircle
10
59.557695194506053
20
-78.878607126754773
30
0
40
76.419771940939768
210
0
220
-0
230
1
100
AcDbArc
50
89.999949032693493
51
132.18845528245464
0
ARC
5
165
100
AcDbEntity
8
0
100
AcDbCircle
10
10.936385050757115
20
-25.21018694868885
30
0
40
4.0020545070532441
210
0
220
0
230
1
100
AcDbArc
50
132.42755886390793
51
179.94678482282404
0
LINE
5
166
100
AcDbEntity
8
0
100
AcDbLine
10
6.9343322698547212
20
-25.206469920823082
30
0
11
6.9340332427670894
21
-81.003582772064135
31
0
0
ARC
5
167
100
AcDbEntity
8
0
100
AcDbCircle
10
10.918390766039183
20
-80.593449368863403
30
0
40
4.0054106258504829
210
0
220
0
230
1
100
AcDbArc
50
185.87709311013992
51
239.39030695661197
0
ARC
5
168
100
AcDbEntity
8
0
100
AcDbCircle
10
38.50846644267434
20
-34.037180373717966
30
0
40
58.122860213811705
210
0
220
0
230
1
100
AcDbArc
50
239.35115883083657
51
269.99967731355628
0
LINE
5
169
100
AcDbEntity
8
0
100
AcDbLine
10
38.508139098159077
20
-92.160040926081251
30
0
11
64.570047925567138
21
-92.159750490158899
31
0
0
ARC
5
170
100
AcDbEntity
8
0
100
AcDbCircle
10
64.570001493131997
20
-161.5137814903452
30
0
40
69.354040000001035
210
0
220
-0
230
1
100
AcDbArc
50
60.001378332104053
51
89.999961640548833
0
LINE
5
171
100
AcDbEntity
8
0
100
AcDbLine
10
99.245576596923456
20
-101.45058680721948
30
0
11
106.62820079794679
21
-105.71294066933777
31
0
0
ARC
5
172
100
AcDbEntity
8
0
100
AcDbCircle
10
108.62846127144232
20
-102.24913040904559
30
0
40
3.999877933279214
210
0
220
0
230
1
100
AcDbArc
50
239.99468201462807
51
330.57861869986652
0
LINE
5
173
100
AcDbEntity
8
0
100
AcDbLine
10
112.11247717920996
20
-104.21398578172725
30
0
11
120.61725643693023
21
-89.483091893174816
31
0
0
LINE
5
174
100
AcDbEntity
8
0
100
AcDbLine
10
122.11734019418492
20
-86.885713626774233
30
0
11
120.61725643693023
21
-89.483091893174816
31
0
0
LINE
5
175
100
AcDbEntity
8
0
100
AcDbLine
10
122.11734019418492
20
-86.885713626774233
30
0
11
124.86062069382706
21
-82.134221495069994
31
0
0
ARC
5
176
100
AcDbEntity
8
0
100
AcDbCircle
10
107.19005235354652
20
-73.258761742126126
30
0
40
19.774295721836754
210
0
220
0
230
1
100
AcDbArc
50
333.33083005368286
51
359.37614643948433
0
LINE
5
177
100
AcDbEntity
8
0
100
AcDbLine
10
126.96317591567285
20
-73.474065925865958
30
0
11
126.96418001277274
21
-33.604203212095349
31
0
0
ARC
5
178
100
AcDbEntity
8
0
100
AcDbCircle
10
121.96404695901032
20
-33.604143047835095
30
0
40
5.0001330541243894
210
0
220
0
230
1
100
AcDbArc
50
-0.00068941310006177933
51
89.996480963313189
0
LINE
5
179
100
AcDbEntity
8
0
100
AcDbLine
10
121.96439693669299
20
-28.604010005958816
30
0
11
108.00292948706213
21
-28.603032791742173
31
0
0
LINE
5
180
100
AcDbEntity
8
0
100
AcDbLine
10
119.96401000000006
20
-33.6038100000019
30
0
11
119.96429500047194
21
-30.603820002958926
31
0
0
LINE
5
181
100
AcDbEntity
8
0
100
AcDbLine
10
121.96435406106556
20
-28.604010003141617
30
0
11
121.96443497879463
21
-28.604010008805343
31
0
0
ARC
5
182
100
AcDbEntity
8
0
100
AcDbCircle
10
121.96429499144659
20
-30.604010003905977
30
0
40
1.9999999999997464
210
0
220
-0
230
1
100
AcDbArc
50
89.995989657882902
51
179.99455687380157
0
LINE
5
183
100
AcDbEntity
8
0
100
AcDbLine
10
105.76839939050103
20
-31.017044638952665
30
0
11
107.59674667540224
21
-29.18883611859679
31
0
0
ARC
5
184
100
AcDbEntity
8
0
100
AcDbCircle
10
107.18255928312712
20
-32.431311869036321
30
0
40
2.0000000000001772
210
0
220
0
230
1
100
AcDbArc
50
134.99782565255086
51
179.99966164917006
0
ARC
5
185
100
AcDbEntity
8
0
100
AcDbCircle
10
106.18258678277614
20
-27.774568888513155
30
0
40
2.0000000000001741
210
-0
220
0
230
1
100
AcDbArc
50
314.99782565255157
51
359.99966164917004
0
LINE
5
186
100
AcDbEntity
8
0
100
AcDbLine
10
103.68260101856097
20
-72.073260826019421
30
0
11
94.985851610762197
21
-72.073209468727001
31
0
0
LINE
5
187
100
AcDbEntity
8
0
100
AcDbLine
10
94.985851610762197
20
-72.073209468727001
30
0
11
94.98583395428561
21
-75.063124727131068
31
0
0
LINE
5
188
100
AcDbEntity
8
0
100
AcDbLine
10
94.98583395428561
20
-75.063124727131068
30
0
11
106.04887999999981
21
-79.916030000000362
31
0
0
ARC
5
189
100
AcDbEntity
8
0
100
AcDbCircle
10
103.68260987657619
20
-70.573260826045583
30
0
40
1.5000000000000016
210
0
220
0
230
1
100
AcDbArc
50
269.99966164874195
51
359.99989132229439
0
ENDSEC
0
SECTION
2
OBJECTS
0
DICTIONARY
5
C
100
AcDbDictionary
3
ACAD_GROUP
350
D
3
ACAD_MLINESTYLE
350
17
0
DICTIONARY
5
D
100
AcDbDictionary
0
DICTIONARY
5
1A
330
C
100
AcDbDictionary
0
DICTIONARY
5
17
100
AcDbDictionary
0
ENDSEC
0
EOF
