0
SECTION
2
HEADER
9
$INSUNITS
70
4
9
$ACADVER
1
AC1014
9
$HANDSEED
5
FFFF
0
ENDSEC
0
SECTION
2
TABLES
0
TABLE
2
VPORT
5
8
100
AcDbSymbolTable
0
ENDTAB
0
TABLE
2
LTYPE
5
5
100
AcDbSymbolTable
0
LTYPE
5
14
100
AcDbSymbolTableRecord
100
AcDbLinetypeTableRecord
2
BYBLOCK
70
0
0
LTYPE
5
15
100
AcDbSymbolTableRecord
100
AcDbLinetypeTableRecord
2
BYLAYER
70
0
0
ENDTAB
0
TABLE
2
LAYER
5
2
100
AcDbSymbolTable
70
2
0
LAYER
5
50
100
AcDbSymbolTableRecord
100
AcDbLayerTableRecord
2
0
70
0
6
CONTINUOUS
0
ENDTAB
0
TABLE
2
STYLE
5
3
100
AcDbSymbolTable
70
1
0
STYLE
5
11
100
AcDbSymbolTableRecord
100
AcDbTextStyleTableRecord
2
STANDARD
70
0
0
ENDTAB
0
TABLE
2
VIEW
5
6
100
AcDbSymbolTable
70
0
0
ENDTAB
0
TABLE
2
UCS
5
7
100
AcDbSymbolTable
70
0
0
ENDTAB
0
TABLE
2
APPID
5
9
100
AcDbSymbolTable
70
2
0
APPID
5
12
100
AcDbSymbolTableRecord
100
AcDbRegAppTableRecord
2
ACAD
70
0
0
ENDTAB
0
TABLE
2
DIMSTYLE
5
A
100
AcDbSymbolTable
70
1
0
ENDTAB
0
TABLE
2
BLOCK_RECORD
5
1
100
AcDbSymbolTable
70
1
0
BLOCK_RECORD
5
1F
100
AcDbSymbolTableRecord
100
AcDbBlockTableRecord
2
*MODEL_SPACE
0
BLOCK_RECORD
5
1B
100
AcDbSymbolTableRecord
100
AcDbBlockTableRecord
2
*PAPER_SPACE
0
ENDTAB
0
ENDSEC
0
SECTION
2
BLOCKS
0
BLOCK
5
20
100
AcDbEntity
100
AcDbBlockBegin
2
*MODEL_SPACE
0
ENDBLK
5
21
100
AcDbEntity
100
AcDbBlockEnd
0
BLOCK
5
1C
100
AcDbEntity
100
AcDbBlockBegin
2
*PAPER_SPACE
0
ENDBLK
5
1D
100
AcDbEntity
100
AcDbBlockEnd
0
ENDSEC
0
SECTION
2
ENTITIES
0
LINE
5
100
100
AcDbEntity
8
0
100
AcDbLine
10
95.275875920608001
20
-54.055169971940003
30
0
11
95.275880000000001
21
7.9524160983987535
31
0
0
ARC
5
101
100
AcDbEntity
8
0
100
AcDbCircle
10
94.275000000000006
20
7.952
30
0
40
1.000993698482
210
0
220
-0
230
1
100
AcDbArc
50
0.023818367337876335
51
64.83683489943239
0
ARC
5
102
100
AcDbEntity
8
0
100
AcDbCircle
10
49.650500000000008
20
-87.145500000000013
30
0
40
106.04801000205002
210
0
220
-0
230
1
100
AcDbArc
50
64.861448868356646
51
89.999643414126581
0
ARC
5
103
100
AcDbEntity
8
0
100
AcDbCircle
10
49.6511
20
-54.517500000000005
30
0
40
73.419995631166003
210
0
220
-0
230
1
100
AcDbArc
50
89.999953176901826
51
132.18183698412506
0
ARC
5
104
100
AcDbEntity
8
0
100
AcDbCircle
10
1.0269999999999999
20
-0.84899999999999998
30
0
40
1.0001800577900002
210
0
220
0
230
1
100
AcDbArc
50
132.54398923963734
51
179.98052294159785
0
LINE
5
105
100
AcDbEntity
8
0
100
AcDbLine
10
0.026819999999595986
20
-0.84866000000000019
30
0
11
0.02681799999998135
21
-56.248564656617603
31
0
0
ARC
5
106
100
AcDbEntity
8
0
100
AcDbCircle
10
1.026
20
-56.249000000000002
30
0
40
0.99855910716399965
210
0
220
0
230
1
100
AcDbArc
50
179.97502845858511
51
238.22689300522404
0
ARC
5
107
100
AcDbEntity
8
0
100
AcDbCircle
10
28.602000000000004
20
-9.6760000000000002
30
0
40
55.122900000661012
210
0
220
0
230
1
100
AcDbArc
50
239.3494026653166
51
269.99971935691934
0
LINE
5
108
100
AcDbEntity
8
0
100
AcDbLine
10
28.601729999999975
20
-64.798899999999762
30
0
11
54.663613000202858
21
-64.798568999999986
31
0
0
ARC
5
109
100
AcDbEntity
8
0
100
AcDbCircle
10
54.66360000000001
20
-137.15260000000001
30
0
40
72.354040000001035
210
0
220
-0
230
1
100
AcDbArc
50
60.001349922335855
51
89.999989705386895
0
LINE
5
110
100
AcDbEntity
8
0
100
AcDbLine
10
90.839143673138409
20
-74.49131095904103
30
0
11
98.221841055495815
21
-78.753707032034868
31
0
0
ARC
5
111
100
AcDbEntity
8
0
100
AcDbCircle
10
98.721999999999994
20
-77.888000000000005
30
0
40
0.99970043803100461
210
0
220
0
230
1
100
AcDbArc
50
239.98298833939657
51
330.01192605038761
0
LINE
5
112
100
AcDbEntity
8
0
100
AcDbLine
10
99.587869999999739
20
-78.387669999999844
30
0
11
108.11288006945092
21
-63.621734879705052
31
0
0
ARC
5
113
100
AcDbEntity
8
0
100
AcDbCircle
10
107.247
20
-63.122000000000007
30
0
40
1.0001491837219938
210
-0
220
0
230
1
100
AcDbArc
50
-29.991007804491133
51
60.015516944621481
0
LINE
5
114
100
AcDbEntity
8
0
100
AcDbLine
10
107.74683999999995
20
-62.2557100000001
30
0
11
96.141881091373946
21
-55.555030841750607
31
0
0
ARC
5
115
100
AcDbEntity
8
0
100
AcDbCircle
10
97.00800000000001
20
-54.055
30
0
40
1.732124087731606
210
0
220
0
230
1
100
AcDbArc
50
180.00562238858447
51
239.99783149402901
0
LWPOLYLINE
5
116
100
AcDbEntity
8
0
100
AcDbPolyline
90
4
70
1
43
0.0
10
2.5514260000000006
20
-40.723412000000003
10
16.551425999999999
20
-40.723412000000003
10
16.551425999999999
20
-54.72341200000001
10
2.5514260000000011
20
-54.72341200000001
0
CIRCLE
5
117
100
AcDbEntity
8
0
100
AcDbCircle
10
19.076422000000001
20
-45.248412999999999
30
0
40
1.1000000000000001
210
0
220
-0
230
1
0
LWPOLYLINE
5
118
100
AcDbEntity
8
0
100
AcDbPolyline
90
4
70
1
43
0.0
10
21.601426
20
-28.723416000000004
10
35.601425999999996
20
-28.723416000000004
10
35.601425999999996
20
-42.723416
10
21.601426
20
-42.723416
0
LWPOLYLINE
5
119
100
AcDbEntity
8
0
100
AcDbPolyline
90
4
70
1
43
0.0
10
47.663553
20
-48.273395000000008
10
61.663553
20
-48.273395000000008
10
61.663553
20
-62.273395000000001
10
47.663553
20
-62.273395000000001
0
LWPOLYLINE
5
120
100
AcDbEntity
8
0
100
AcDbPolyline
90
4
70
1
43
0.0
10
84.427681099740994
20
-53.113866531690007
10
80.804214468306
20
-66.636828099740001
10
67.281252900259005
20
-63.013361468299998
10
70.904719531693999
20
-49.490399900249997
0
LWPOLYLINE
5
121
100
AcDbEntity
8
0
100
AcDbPolyline
90
4
70
1
43
0.0
10
86.039212173509
20
-68.805481826489995
10
93.039212173509014
20
-56.681126173500004
10
105.16356782649
20
-63.681126173500004
10
98.163567826491018
20
-75.805481826489995
0
CIRCLE
5
122
100
AcDbEntity
8
0
100
AcDbCircle
10
86.493121000000016
20
-60.305670999999997
30
0
40
1.1000000000000001
210
0
220
-0
230
1
0
CIRCLE
5
123
100
AcDbEntity
8
0
100
AcDbCircle
10
57.17592100000001
20
-42.022855999999997
30
0
40
1.1000000000000001
210
0
220
-0
230
1
0
LWPOLYLINE
5
124
100
AcDbEntity
8
0
100
AcDbPolyline
90
4
70
1
43
0.0
10
59.701422999999998
20
-43.222912000000008
10
59.701422999999998
20
-29.222912000000001
10
73.701423000000005
20
-29.222912000000001
10
73.701423000000005
20
-43.222912000000008
0
LWPOLYLINE
5
125
100
AcDbEntity
8
0
100
AcDbPolyline
90
4
70
1
43
0.0
10
78.751429000000002
20
-31.722914000000003
10
92.751429000000002
20
-31.722914000000003
10
92.751429000000002
20
-45.722914000000003
10
78.751429000000002
20
-45.722914000000003
0
LWPOLYLINE
5
126
100
AcDbEntity
8
0
100
AcDbPolyline
90
4
70
1
43
0.0
10
16.551428000000001
20
-35.673408999999999
10
2.551428
20
-35.673408999999999
10
2.551428
20
-21.673408999999999
10
16.551428000000001
20
-21.673408999999999
0
LWPOLYLINE
5
127
100
AcDbEntity
8
0
100
AcDbPolyline
90
4
70
1
43
0.0
10
2.5514190000000001
20
-2.6234150000000001
10
16.551418999999999
20
-2.6234150000000001
10
16.551418999999999
20
-16.623415000000001
10
2.5514190000000014
20
-16.623415000000001
0
LWPOLYLINE
5
128
100
AcDbEntity
8
0
100
AcDbPolyline
90
4
70
1
43
0.0
10
40.651426999999998
20
-22.722911
10
54.651427000000005
20
-22.722911
10
54.651427000000005
20
-36.722911000000011
10
40.651426999999998
20
-36.722911000000011
0
LWPOLYLINE
5
129
100
AcDbEntity
8
0
100
AcDbPolyline
90
4
70
1
43
0.0
10
21.601427000000001
20
-9.6734120000000008
10
35.601427000000001
20
-9.6734120000000008
10
35.601427000000001
20
-23.673411999999999
10
21.601427000000001
20
-23.673411999999999
0
LWPOLYLINE
5
130
100
AcDbEntity
8
0
100
AcDbPolyline
90
4
70
1
43
0.0
10
40.651423000000008
20
-3.672917
10
54.651423000000001
20
-3.672917
10
54.651423000000001
20
-17.672917000000005
10
40.651423000000008
20
-17.672917000000005
0
CIRCLE
5
131
100
AcDbEntity
8
0
100
AcDbCircle
10
19.076426000000001
20
-7.1484140000000007
30
0
40
1.1000000000000001
210
0
220
-0
230
1
0
LWPOLYLINE
5
132
100
AcDbEntity
8
0
100
AcDbPolyline
90
4
70
1
43
0.0
10
21.601421999999999
20
-4.6234169999999999
10
21.601421999999999
20
9.3765830000000001
10
35.601421999999999
20
9.3765830000000001
10
35.601421999999999
20
-4.6234170000000008
0
LWPOLYLINE
5
133
100
AcDbEntity
8
0
100
AcDbPolyline
90
4
70
1
43
0.0
10
40.651418999999997
20
15.377086000000002
10
54.651418999999997
20
15.377086000000002
10
54.651418999999997
20
1.3770860000000007
10
40.651418999999997
20
1.3770860000000003
0
LWPOLYLINE
5
134
100
AcDbEntity
8
0
100
AcDbPolyline
90
4
70
1
43
0.0
10
59.701427000000002
20
-10.17291
10
73.701426999999995
20
-10.17291
10
73.701426999999995
20
-24.172910000000005
10
59.701427000000002
20
-24.172910000000005
0
CIRCLE
5
135
100
AcDbEntity
8
0
100
AcDbCircle
10
76.226425000000006
20
-7.6479130000000008
30
0
40
1.1000000000000001
210
0
220
-0
230
1
0
LWPOLYLINE
5
136
100
AcDbEntity
8
0
100
AcDbPolyline
90
4
70
1
43
0.0
10
92.751428000000004
20
-26.672915000000003
10
78.751428000000004
20
-26.672915000000003
10
78.751428000000004
20
-12.672915
10
92.751428000000004
20
-12.672915
0
LWPOLYLINE
5
137
100
AcDbEntity
8
0
100
AcDbPolyline
90
4
70
1
43
0.0
10
73.701428000000007
20
-5.1229180000000003
10
59.701428000000007
20
-5.1229180000000003
10
59.701428000000007
20
8.8770820000000015
10
73.701428000000007
20
8.8770820000000015
0
LWPOLYLINE
5
138
100
AcDbEntity
8
0
100
AcDbPolyline
90
4
70
1
43
0.0
10
78.751426000000009
20
-7.6229130000000005
10
78.751426000000009
20
6.3770870000000013
10
92.751426000000009
20
6.3770870000000013
10
92.751426000000009
20
-7.6229130000000005
0
ENDSEC
0
SECTION
2
OBJECTS
0
DICTIONARY
5
C
100
AcDbDictionary
3
ACAD_GROUP
350
D
3
ACAD_MLINESTYLE
350
17
0
DICTIONARY
5
D
100
AcDbDictionary
0
DICTIONARY
5
1A
330
C
100
AcDbDictionary
0
DICTIONARY
5
17
100
AcDbDictionary
0
ENDSEC
0
EOF
